<?xml version="1.0" encoding="utf-8"?>
<!-- Generator: Adobe Illustrator 25.4.1, SVG Export Plug-In . SVG Version: 6.00 Build 0)  -->
<svg version="1.1" id="Layer_1" xmlns="http://www.w3.org/2000/svg" xmlns:xlink="http://www.w3.org/1999/xlink" x="0px" y="0px"
	 viewBox="0 0 363.1 341.3" style="enable-background:new 0 0 363.1 341.3;" xml:space="preserve">
<g>
	<rect x="123.4" y="206.9" width="116.4" height="10.4"/>
	<polygon points="25.1,206.9 25.1,217.3 42.9,217.3 40.5,206.9 	"/>
	<polygon points="338,217.3 338,206.9 322.7,206.9 320.2,217.3 	"/>
	<path d="M239.8,202.6h-0.7c-1.6,1.3-3.6,2.1-5.7,2.1h-25c-3,0-5.7-1.5-7.5-3.9h-38.6c-1.7,2.4-4.4,3.9-7.5,3.9h-25
		c-2.1,0-4.1-0.8-5.7-2.1h-0.7v4.3h116.4L239.8,202.6L239.8,202.6z"/>
	<path d="M135.3,184.4h14.2l0.3-1.2h0h4.4l-0.3,1.2h0.8c1.1,0,2.1,0.2,3.1,0.6l0.3-1.7h4.4l-0.4,2.8H160c2.6,1.8,4.3,4.9,4.3,8.5
		c0,1-0.1,2-0.4,3h35.4c-0.3-0.9-0.4-1.9-0.4-3c0-3.5,1.7-6.6,4.3-8.5h-2.2l-0.4-2.8h4.4l0.3,1.7c1-0.4,2-0.6,3.1-0.6h0.8l-0.3-1.2
		h0h4.4l0.3,1.2h14.2l3-5.5h-98.5L135.3,184.4z M197.7,193.1h-4.8h0l-0.3-3.2h0h4.7L197.7,193.1z M192,183.2h4.4l0.4,2.8h-4.5h0
		L192,183.2L192,183.2z M188.5,193.1h-4.8l-0.1-3.2h4.7L188.5,193.1z M188,183.2l0.2,2.8h-4.5l0-2.8H188z M175.1,183.2L175.1,183.2
		h4.4l0,2.8H175L175.1,183.2z M174.8,189.9h4.7l-0.1,3.2h-4.8L174.8,189.9z M166.7,183.2L166.7,183.2h4.4l-0.2,2.8h-4.5h0
		L166.7,183.2z M165.9,189.9L165.9,189.9h4.7l-0.3,3.2h-4.8h0L165.9,189.9z"/>
	<polygon points="25.1,206.9 40.5,206.9 37.8,195.3 	"/>
	<polygon points="338,206.9 325.4,195.3 322.7,206.9 	"/>
	<path d="M130.7,175.8h101.8l8-14.7c0.1-0.2,0.2-0.4,0.4-0.6H202v-3.7h-6v-10.1h26.5V94.8h-81.8v51.8h27.1v10.1h-6.6v3.7h-38.8
		c0.1,0.2,0.3,0.4,0.4,0.6L130.7,175.8z M144.1,98.5h75V143h-75V98.5z"/>
	<path d="M59.6,143V98.5h75V143h-14.2c-0.1,1.3-0.3,2.5-0.6,3.7H138V94.8H56.2v51.8h19.3c-0.3-1.2-0.5-2.4-0.6-3.7H59.6z"/>
	<path d="M228.6,143V98.5h75V143h-15.3c-0.1,1.3-0.3,2.5-0.6,3.7H307V94.8h-81.8v51.8h18.3c-0.3-1.2-0.5-2.4-0.6-3.7H228.6z"/>
	<path d="M222.5,39.9h-81.8v51.8h81.8V39.9z M219,88.1h-75V43.6h75V88.1z"/>
	<path d="M138,39.9H56.2v51.8H138V39.9z M134.6,88.1h-75V43.6h75V88.1z"/>
	<path d="M225.1,91.7H307V39.9h-81.8L225.1,91.7L225.1,91.7z M228.6,43.6h75v44.5h-75L228.6,43.6L228.6,43.6z"/>
	<path d="M79.9,149c2.3,1.3,4,3.7,4.6,6.7H111c3.7-3.8,6-9.1,6-15c0-11.4-8.7-20.7-19.4-20.7c-10.7,0-19.4,9.3-19.4,20.7
		C78.3,143.6,78.8,146.4,79.9,149z"/>
	<path d="M98.2,285.9c0-1.2,0.2-2.3,0.7-3.3l-4.6-1.5c0.5,2.6,2,4.9,4.1,6.4C98.2,287,98.2,286.4,98.2,285.9z"/>
	<path d="M119.4,241.4h8.5l-6,35.8c-0.9,5.5,2.5,10.8,7.7,11.7c0.6,0.1,1.1,0.2,1.7,0.2c4.5,0,8.5-3.4,9.3-8.3l8-47.7
		c0.5-2.9-0.3-6-2.1-8.3c-1.8-2.3-4.5-3.6-7.3-3.6h-19.2V189l4.7,8.7c1.1,2,3.1,3.2,5.2,3.2h25c3.3,0,6-2.9,6-6.4s-2.7-6.4-6-6.4
		h-21.5l-13.6-25.2c-0.2-0.4-0.5-0.8-0.8-1.2c-1.2-2-3.3-3.4-5.7-3.4H85.1l17.7,75.6c5.3,0.9,8.4,2.2,8.4,5.3
		c0,4.9-5.4,8.2-12.5,10.1l-3.6,21.4l15.2,5v3.9c0.8,0.7,1.5,1.6,2,2.7c0.2-0.5,0.3-1.1,0.4-1.7L119.4,241.4z"/>
	<path d="M82,156.4c-0.5-3.4-3.2-5.9-6.5-5.9H39.2c-4,0-7.1,3.8-6.5,8.1l18.4,78.6c0.2,1.2,0.6,2.3,1.3,3.2
		c1.3,4.1,10.4,7.4,22.2,8.2v1.6h3.7v19.4l-25.2,8.3v3.4c-1.6,0.9-2.7,2.6-2.7,4.7c0,2.9,2.2,5.2,4.9,5.2c2.7,0,4.9-2.3,4.9-5.2
		c0-2-1.1-3.8-2.7-4.7l20.9-6.9v6.9c-1.6,0.9-2.7,2.6-2.7,4.7c0,2.9,2.2,5.2,4.9,5.2c2.7,0,4.9-2.3,4.9-5.2c0-2.1-1.1-3.8-2.7-4.7
		v-6.9l20.9,6.9c-1.6,0.9-2.7,2.6-2.7,4.7c0,2.9,2.2,5.2,4.9,5.2c2.7,0,4.9-2.3,4.9-5.2c0-2.1-1.1-3.8-2.7-4.7v-3.4l-25.2-8.3v-19.4
		h3.7v-1.6c12.8-0.9,22.4-4.7,22.4-9.3c0-1.3-3.3-2.2-8.2-2.9c0-0.5,0-1-0.1-1.5L82,156.4z"/>
	<path d="M252.1,155.6h26.6c0.5-2.9,2.3-5.3,4.6-6.7c1-2.5,1.6-5.4,1.6-8.3c0-11.4-8.7-20.7-19.4-20.7c-10.7,0-19.4,9.3-19.4,20.7
		C246.1,146.5,248.4,151.8,252.1,155.6z"/>
	<path d="M250.8,282.4c0.5-1,1.1-1.9,2-2.7v-3.9l15.2-5l-3.6-21.4c-7.1-1.9-12.5-5.1-12.5-10.1c0-3.1,3.2-4.5,8.4-5.3l17.7-75.6
		h-28.2c-2.4,0-4.5,1.4-5.7,3.4c-0.3,0.3-0.6,0.7-0.8,1.2l-13.6,25.2h-21.5c-3.3,0-6,2.9-6,6.4c0,3.6,2.7,6.4,6,6.4h25
		c2.2,0,4.1-1.2,5.2-3.2l4.7-8.7v32.1H224c-2.8,0-5.5,1.3-7.3,3.6c-1.8,2.3-2.6,5.3-2.1,8.3l8,47.7c0.8,4.9,4.8,8.3,9.3,8.3
		c0.6,0,1.1-0.1,1.7-0.2c5.2-1,8.6-6.2,7.7-11.7l-6-35.8h8.5l6.6,39.3C250.4,281.3,250.6,281.9,250.8,282.4z"/>
	<path d="M264.3,282.6c0.4,1,0.7,2.1,0.7,3.3c0,0.5-0.1,1-0.1,1.5c2.1-1.4,3.6-3.7,4.1-6.4L264.3,282.6z"/>
	<path d="M330.4,158.6c0.6-4.2-2.4-8.1-6.5-8.1h-36.3c-3.2,0-6,2.5-6.5,5.9L262.8,235c-0.1,0.5-0.1,1-0.1,1.5
		c-5,0.7-8.2,1.6-8.2,2.9c0,4.6,9.6,8.4,22.4,9.3v1.6h3.7v19.4l-25.2,8.3v3.4c-1.6,0.9-2.7,2.6-2.7,4.7c0,2.9,2.2,5.2,4.9,5.2
		c2.7,0,4.9-2.3,4.9-5.2c0-2-1.1-3.8-2.7-4.7l20.9-6.9v6.9c-1.6,0.9-2.7,2.6-2.7,4.7c0,2.9,2.2,5.2,4.9,5.2c2.7,0,4.9-2.3,4.9-5.2
		c0-2.1-1.1-3.8-2.7-4.7v-6.9l20.9,6.9c-1.6,0.9-2.7,2.6-2.7,4.7c0,2.9,2.2,5.2,4.9,5.2c2.7,0,4.9-2.3,4.9-5.2
		c0-2.1-1.1-3.8-2.7-4.7v-3.4l-25.2-8.3v-19.4h3.7v-1.6c11.8-0.8,20.9-4.1,22.2-8.2c0.7-0.9,1.1-2,1.3-3.2L330.4,158.6z"/>
</g>
</svg>
