<?xml version="1.0" encoding="utf-8"?>
<!-- Generator: Adobe Illustrator 25.4.1, SVG Export Plug-In . SVG Version: 6.00 Build 0)  -->
<svg version="1.1" id="Layer_1" xmlns="http://www.w3.org/2000/svg" xmlns:xlink="http://www.w3.org/1999/xlink" x="0px" y="0px"
	 viewBox="0 0 110 135" style="enable-background:new 0 0 110 135;" xml:space="preserve">
<style type="text/css">
	.st0{fill-rule:evenodd;clip-rule:evenodd;}
</style>
<path class="st0" d="M33.3,32.7c-0.7,0-1.3-0.6-1.3-1.3V20.1c0-0.7,0.6-1.3,1.3-1.3s1.3,0.6,1.3,1.3v11.3
	C34.6,32.1,34,32.7,33.3,32.7z"/>
<path class="st0" d="M33.3,32.7c-0.4,0-0.7-0.2-0.9-0.4l-3.8-3.8c-0.6-0.5-0.6-1.3,0-1.9c0.5-0.5,1.3-0.5,1.9,0l2.9,2.9l2.8-2.9
	c0.6-0.5,1.3-0.5,1.9,0c0.5,0.5,0.5,1.3,0,1.9l-3.8,3.8C33.9,32.6,33.6,32.7,33.3,32.7z"/>
<path class="st0" d="M80.3,32.7c-0.7,0-1.3-0.6-1.3-1.3V20.1c0-0.7,0.6-1.3,1.3-1.3s1.3,0.6,1.3,1.3v11.3
	C81.6,32.1,81,32.7,80.3,32.7z"/>
<path class="st0" d="M80.3,32.7c-0.4,0-0.7-0.2-1-0.4l-3.8-3.8c-0.6-0.5-0.6-1.3,0-1.9c0.5-0.5,1.3-0.5,1.9,0l2.9,2.9l2.8-2.9
	c0.6-0.5,1.3-0.5,1.9,0c0.5,0.5,0.5,1.3,0,1.9l-3.8,3.8C81,32.6,80.6,32.7,80.3,32.7z"/>
<path class="st0" d="M84.6,89.1h-5c-0.6,0-1.1-0.4-1.3-0.9l-1.5-5c-0.1-0.1-0.3-0.2-0.5-0.2l-4.6,2.4c-0.5,0.4-1.2,0.2-1.6-0.2
	l-3.6-3.5c-0.4-0.4-0.5-1.1-0.2-1.6l2.5-4.6c-0.1-0.2-0.1-0.3-0.2-0.5l-5-1.5c-0.5-0.2-0.9-0.7-0.9-1.3v-5c0-0.5,0.4-1.1,0.9-1.3
	l5-1.5c0.1-0.2,0.2-0.4,0.2-0.6l-2.5-4.6c-0.2-0.6-0.1-1.2,0.2-1.6L70,54c0.4-0.4,1.1-0.5,1.6-0.2l4.6,2.5c0.1-0.1,0.3-0.2,0.5-0.2
	l1.5-5c0.2-0.6,0.7-1,1.3-1h5c0.5,0,1.1,0.4,1.2,1l1.5,5c0.2,0.1,0.3,0.1,0.6,0.2l4.6-2.5c0.5-0.4,1.2-0.2,1.6,0.2l3.6,3.6
	c0.4,0.4,0.5,1,0.2,1.6l-2.5,4.6c0.1,0.2,0.2,0.4,0.2,0.6l5,1.5c0.6,0.2,1,0.8,1,1.3v5c0,0.6-0.4,1.1-1,1.3l-5,1.5
	c-0.1,0.1-0.2,0.4-0.2,0.5l2.5,4.6c0.2,0.6,0.2,1.2-0.2,1.6L94,85.2c-0.4,0.4-1.1,0.5-1.6,0.2L87.9,83c-0.2,0.1-0.4,0.1-0.6,0.2
	l-1.5,5C85.7,88.7,85.1,89.1,84.6,89.1z M80.5,86.4h3l1.5-4.7c0.1-0.4,0.5-0.7,0.8-0.9c0.5-0.1,1.1-0.4,1.5-0.6
	c0.4-0.2,0.9-0.2,1.2,0l4.4,2.3l2.1-2.2l-2.3-4.3c-0.2-0.4-0.2-0.9,0-1.2c0.2-0.5,0.5-1,0.6-1.5c0.2-0.4,0.5-0.7,0.9-0.9l4.7-1.4v-3
	l-4.7-1.4c-0.4-0.2-0.7-0.5-0.9-0.9c-0.2-0.5-0.4-1.1-0.6-1.5c-0.2-0.4-0.2-0.9,0-1.2l2.3-4.3l-2.1-2.1L88.5,59
	c-0.4,0.2-0.9,0.2-1.2,0c-0.5-0.2-0.9-0.5-1.5-0.6c-0.4-0.2-0.7-0.5-0.8-0.9l-1.5-4.7h-3L79,57.4c-0.1,0.4-0.5,0.7-0.8,0.9
	c-0.5,0.2-1.1,0.4-1.5,0.6c-0.4,0.1-0.9,0.1-1.2,0l-4.3-2.3l-2.2,2.1l2.3,4.3c0.2,0.4,0.2,0.8,0,1.2c-0.2,0.5-0.5,0.9-0.6,1.5
	c-0.1,0.4-0.5,0.8-0.8,0.9l-4.7,1.5v3l4.7,1.4c0.4,0.2,0.7,0.5,0.8,0.9c0.2,0.5,0.4,1.1,0.6,1.5c0.2,0.4,0.2,0.9,0,1.2l-2.3,4.4
	l2.2,2.1l4.3-2.3c0.4-0.2,0.9-0.2,1.2,0c0.5,0.2,0.9,0.5,1.5,0.6c0.4,0.1,0.7,0.5,0.9,0.9L80.5,86.4z"/>
<path class="st0" d="M82,77.6c-4.3,0-8-3.6-8-8s3.6-8,8-8c4.5,0,8,3.6,8,8S86.4,77.6,82,77.6z M82,64.2c-2.9,0-5.3,2.4-5.3,5.3
	c0,2.9,2.3,5.3,5.3,5.3c3,0,5.3-2.4,5.3-5.3S85,64.2,82,64.2z"/>
<path class="st0" d="M75.8,96.5H37.7c-0.6,0-1.1-0.4-1.3-0.9L21.3,39.2H9.7c-0.7,0-1.3-0.6-1.3-1.3s0.6-1.3,1.3-1.3h12.6
	c0.6,0,1.1,0.4,1.3,0.9l15.1,56.4h37.1c0.7,0,1.3,0.6,1.3,1.3C77.2,95.9,76.5,96.5,75.8,96.5z"/>
<path class="st0" d="M34.3,83.8c-0.7,0-1.3-0.6-1.3-1.3s0.6-1.3,1.3-1.3h34.8c0.7,0,1.3,0.6,1.3,1.3s-0.6,1.3-1.3,1.3H34.3z
	 M86.2,58.3c-0.1,0-0.2,0-0.3-0.1c-0.7-0.2-1.1-0.9-0.9-1.6l2.3-9.1H24.6c-0.7,0-1.3-0.6-1.3-1.3s0.6-1.3,1.3-1.3h64.3
	c0.4,0,0.8,0.2,1.1,0.5c0.2,0.4,0.3,0.7,0.2,1.1l-2.7,10.8C87.3,57.9,86.8,58.3,86.2,58.3L86.2,58.3z"/>
<path class="st0" d="M75.8,110c-4.5,0-8.1-3.7-8.1-8.1c0-4.5,3.6-8.1,8.1-8.1s8.1,3.6,8.1,8.1C83.9,106.3,80.3,110,75.8,110z
	 M75.8,106.3c-0.7,0-1.3-0.6-1.3-1.3c0-0.7,0.6-1.3,1.3-1.3c1.1,0,1.8-0.8,1.8-1.8c0-1-0.8-1.8-1.8-1.8c-0.7,0-1.3-0.6-1.3-1.3
	c0-0.7,0.6-1.3,1.3-1.3c2.5,0,4.5,2,4.5,4.5C80.3,104.4,78.3,106.3,75.8,106.3L75.8,106.3z"/>
<path class="st0" d="M56.7,83.8c-0.7,0-1.3-0.6-1.3-1.3V46.2c0-0.7,0.6-1.3,1.3-1.3c0.7,0,1.3,0.6,1.3,1.3v36.2
	C58.1,83.1,57.5,83.8,56.7,83.8z"/>
<path class="st0" d="M41.4,83.8c-0.7,0-1.3-0.6-1.3-1.3V46.2c0-0.7,0.6-1.3,1.3-1.3s1.3,0.6,1.3,1.3v36.2
	C42.7,83.1,42.1,83.8,41.4,83.8z"/>
<path class="st0" d="M72.2,57c-0.7,0-1.3-0.6-1.3-1.3v-9.4c0-0.7,0.6-1.3,1.3-1.3c0.7,0,1.3,0.6,1.3,1.3v9.4
	C73.4,56.3,72.9,57,72.2,57z"/>
<path class="st0" d="M70.1,65.3H29.4c-0.8,0-1.3-0.6-1.3-1.3c0-0.7,0.6-1.3,1.3-1.3h40.7c0.7,0,1.3,0.6,1.3,1.3
	C71.5,64.7,70.8,65.3,70.1,65.3z"/>
<path class="st0" d="M78.5,56.3l-51.6-0.2c-0.7,0-1.3-0.6-1.3-1.3c0-0.7,0.6-1.3,1.3-1.3l51.6,0.2c0.7,0,1.3,0.6,1.3,1.3
	C79.8,55.7,79.2,56.3,78.5,56.3L78.5,56.3z"/>
<path class="st0" d="M69.3,75.1H32c-0.7,0-1.3-0.6-1.3-1.3c0-0.8,0.6-1.3,1.3-1.3h37.3c0.7,0,1.3,0.6,1.3,1.3
	C70.6,74.5,70,75.1,69.3,75.1z"/>
<path class="st0" d="M58.7,41.5h-4c-0.5,0-1.1-0.4-1.2-0.9l-1.2-3.9c-0.1,0-0.1-0.1-0.1-0.1l-3.6,1.9c-0.6,0.3-1.2,0.2-1.6-0.2
	l-2.8-2.8c-0.4-0.4-0.5-1-0.2-1.6l1.9-3.5c0-0.1-0.1-0.2-0.1-0.2L41.9,29c-0.5-0.2-0.9-0.8-0.9-1.3v-4c0-0.5,0.4-1.1,0.9-1.2
	l3.9-1.2c0-0.1,0.1-0.1,0.1-0.1L44,17.6c-0.2-0.6-0.1-1.2,0.2-1.6l2.8-2.8c0.4-0.4,1-0.5,1.6-0.2l3.6,1.9c0.1,0,0.1-0.1,0.1-0.1
	l1.2-3.9c0.1-0.5,0.7-0.9,1.2-0.9h4c0.5,0,1.1,0.4,1.3,0.9l1.2,3.9c0.1,0,0.2,0.1,0.2,0.1l3.5-2c0.6-0.3,1.2-0.2,1.6,0.2l2.8,2.8
	c0.4,0.4,0.5,1.1,0.2,1.6l-1.9,3.6c0,0.1,0.1,0.2,0.1,0.2l3.9,1.2c0.5,0.2,0.9,0.7,0.9,1.3v4c0,0.5-0.4,1.1-0.9,1.2l-3.9,1.2
	c0,0.1-0.1,0.2-0.1,0.2l1.9,3.6c0.2,0.6,0.2,1.2-0.2,1.6l-2.8,2.9c-0.4,0.4-1,0.5-1.6,0.2l-3.5-1.9c-0.1,0-0.2,0.1-0.2,0.1L60,40.6
	C59.8,41.1,59.4,41.5,58.7,41.5L58.7,41.5z M56.7,32.3c-3.6,0-6.6-2.9-6.6-6.6c0-3.6,2.9-6.7,6.6-6.7s6.6,2.9,6.6,6.7
	C63.4,29.4,60.4,32.3,56.7,32.3z M56.7,21.8c-2.1,0-4,1.7-4,3.9s1.8,4,4,4c2.2,0,4-1.8,4-4S59,21.8,56.7,21.8z"/>
<path class="st0" d="M37.7,110c-4.5,0-8.1-3.7-8.1-8.1c0-4.5,3.6-8.1,8.1-8.1c4.4,0,8,3.6,8,8.1C45.8,106.3,42.1,110,37.7,110z
	 M37.7,106.3c-0.8,0-1.3-0.6-1.3-1.3c0-0.7,0.6-1.3,1.3-1.3c1,0,1.8-0.8,1.8-1.8c0-1-0.8-1.8-1.8-1.8c-0.8,0-1.3-0.6-1.3-1.3
	c0-0.7,0.6-1.3,1.3-1.3c2.4,0,4.5,2,4.5,4.5C42.3,104.4,40.1,106.3,37.7,106.3L37.7,106.3z"/>
</svg>
